# xmcd CD database file
#
# Track frame offsets:
#	150
#	17475
#	36600
#	57900
#	73050
#	90190
#	106875
#	127950
#	143812
#	159687
#	181095
#	198450
#
# Disc length: 2851 seconds
#
# Revision: 2
# Processed by: cddbd v1.5.2PL0 Copyright (c) Steve Scherf et al.
# Submitted via: CDex 1.70beta3
#
DISCID=9e0b210c
DTITLE=The Mods - Leather File - Disc2
DYEAR=1991
DGENRE=Rock
TTITLE0=Breakin' My Heart
TTITLE1=Ready Steady Go
TTITLE2=Ready Steady Go (Extend Club Mix)
TTITLE3=Farewell
TTITLE4=ジャマをするな
TTITLE5=Boys GO Crazy
TTITLE6=涙のLast Night
TTITLE7=Black Blitz Boy
TTITLE8=Everybody Loves Somebody
TTITLE9=Ace Boon
TTITLE10=気をつけな
TTITLE11=Blue Song
EXTD=YEAR: 1991
EXTT0=
EXTT1=
EXTT2=
EXTT3=
EXTT4=
EXTT5=
EXTT6=
EXTT7=
EXTT8=
EXTT9=
EXTT10=
EXTT11=
PLAYORDER=
